<svg xmlns="http://www.w3.org/2000/svg" width="48" height="24">
  <path fill="#02B3E4" fill-rule="evenodd" d="M47.725 22.867L35.942 1.133C35.616.533 34.9.067 34.25 0H14.326c-.65.067-1.432.533-1.692 1.133L.72 22.867C.396 23.533.657 24 1.373 24h19.53c.717 0 1.563-.533 1.954-1.133l1.302-2.4 1.3 2.4c.328.666 1.24 1.133 1.955 1.133h19.53c.782 0 1.108-.533.782-1.133zM31.97 2l-7.747 14.267L16.476 2H31.97zM21.228 21.867c-.065.066-.195.133-.26.133H3.455L14.197 2.133l.065-.066 8.854 16.266-1.888 3.534zm6.25.133c-.065 0-.195-.133-.26-.133L25.33 18.4l8.854-16.267.065.067L44.99 22H27.48z"/>
</svg>
