<?xml version="1.0" encoding="iso-8859-1"?>
<!-- Generator: Adobe Illustrator 16.0.0, SVG Export Plug-In . SVG Version: 6.00 Build 0)  -->
<!DOCTYPE svg PUBLIC "-//W3C//DTD SVG 1.1//EN" "http://www.w3.org/Graphics/SVG/1.1/DTD/svg11.dtd">
<svg version="1.1" id="Layer_1" xmlns="http://www.w3.org/2000/svg" xmlns:xlink="http://www.w3.org/1999/xlink" x="0px" y="0px"
	 width="60px" height="60px" viewBox="0 0 60 60" style="enable-background:new 0 0 60 60;" xml:space="preserve">
<g>
	<path style="fill:#A951ED;" d="M41.5,25.104l-1.063-0.97l-0.825,1.187c-2.199,3.188-5.76,5.091-9.52,5.091
		c-3.805,0-7.392-1.938-9.59-5.181l-0.807-1.196l-1.077,0.96C13.195,29.83,9.262,40.79,9.262,51.049v2.116h14.264v-2.522H11.788
		c0.092-8.806,3.144-18.027,7.53-22.794c2.714,3.239,6.608,5.089,10.771,5.089c4.104,0,7.966-1.807,10.68-4.979
		c4.079,4.615,7.146,13.976,7.423,22.688H36.471v2.522h14.268v-1.262C50.738,42.969,47.502,30.539,41.5,25.104z"/>
	<path style="fill:#A951ED;" d="M29.999,27.746c6.959,0,12.625-5.664,12.625-12.625c0-6.958-5.666-12.621-12.625-12.621
		c-6.958,0-12.622,5.663-12.622,12.621C17.376,22.082,23.039,27.746,29.999,27.746z M29.999,5.026
		c5.57,0,10.099,4.528,10.099,10.095c0,5.57-4.529,10.099-10.099,10.099c-5.57,0-10.099-4.53-10.099-10.099
		C19.898,9.554,24.428,5.026,29.999,5.026z"/>
	<path style="fill:#A951ED;" d="M34.536,33.673l-0.863-0.265c-0.013,0.044-0.03,0.091-0.047,0.131h-7.229l-0.104-0.201l-0.808,0.405
		l2.658,5.308L24.631,50.75l5.368,6.75l5.223-6.566l0.147-0.182l-3.507-11.669C32.305,38.406,33.824,36.001,34.536,33.673z"/>
</g>
</svg>
