<?xml version="1.0" encoding="iso-8859-1"?>
<!-- Generator: Adobe Illustrator 16.0.0, SVG Export Plug-In . SVG Version: 6.00 Build 0)  -->
<!DOCTYPE svg PUBLIC "-//W3C//DTD SVG 1.1//EN" "http://www.w3.org/Graphics/SVG/1.1/DTD/svg11.dtd">
<svg version="1.1" id="Layer_1" xmlns="http://www.w3.org/2000/svg" xmlns:xlink="http://www.w3.org/1999/xlink" x="0px" y="0px"
	 width="60px" height="50px" viewBox="0 5 60 50" style="enable-background:new 0 5 60 50;" xml:space="preserve">
<path style="fill:#02CCBA;" d="M56.674,51.835c-0.619,0-1.279-0.142-1.951-0.424l-21.473-9.06H5.555C2.491,42.352,0,39.879,0,36.833
	V13.685c0-3.044,2.491-5.52,5.555-5.52h45.007c3.067,0,5.562,2.475,5.562,5.52v19.137l3.746,14.386
	c0.352,1.624-0.031,3.04-1.053,3.892C58.229,51.587,57.486,51.835,56.674,51.835z M5.555,11.804c-1.075,0-1.916,0.827-1.916,1.881
	v23.149c0,1.035,0.86,1.882,1.916,1.882h28.429l22.148,9.341c0.076,0.033,0.145,0.059,0.204,0.076
	c-0.002-0.043-0.017-0.097-0.026-0.152l-3.828-14.963V13.685c0-1.038-0.859-1.881-1.918-1.881H5.555L5.555,11.804z M39.357,32.498
	H16.314v-3.639h23.043V32.498L39.357,32.498z M39.357,22.692H16.314v-3.639h23.043V22.692L39.357,22.692z"/>
</svg>
