<svg enable-background="new 0 0 85 72" height="72" viewBox="0 0 85 72" width="85" xmlns="http://www.w3.org/2000/svg" xmlns:xlink="http://www.w3.org/1999/xlink"><mask id="a" height="23.944" maskUnits="userSpaceOnUse" width="16.681" x="0" y=".03"><path d="m0 .023h84.866v23.952h-84.866" fill="#fff"/></mask><mask id="b" height="23.062" maskUnits="userSpaceOnUse" width="14.104" x="70.756" y=".89"><path d="m0 .023h84.866v23.952h-84.866l14.696-7.27" fill="#fff"/></mask><path d="m16.346 10.275h-7.132c-.184 0-.333.155-.333.348v3.638c0 .2.15.351.34.351h2.779v4.52s-.626.23-2.353.23c-2.037 0-4.883-.771-4.883-7.311 0-6.53 2.964-7.39 5.747-7.39 2.41 0 3.45.45 4.11.66.21.07.4-.15.4-.34l.8-3.51c0-.09-.03-.2-.12-.27-.281-.221-1.921-1.171-6.051-1.171-4.768-.008-9.65 2.108-9.65 12.27 0 10.16 5.59 11.675 10.303 11.675 3.9 0 6.268-1.74 6.268-1.74.1-.055.11-.199.11-.264v-11.341c0-.193-.15-.348-.33-.348" mask="url(#a)" transform="translate(0 24)"/><path d="m53.098 25.24c0-.193-.146-.35-.33-.35h-4.018c-.184 0-.332.157-.332.35v8.1h-6.26v-8.1c0-.193-.146-.35-.33-.35h-4.015c-.183 0-.332.157-.332.35v21.93c0 .191.15.35.34.35h4.02c.19 0 .33-.158.33-.35v-9.38h6.261l-.011 9.38c0 .191.149.35.33.35h4.03c.189 0 .33-.158.33-.35v-21.93zm-29.175 2.878c0-1.51-1.16-2.728-2.59-2.728-1.428 0-2.588 1.22-2.588 2.728s1.16 2.73 2.59 2.73 2.588-1.222 2.588-2.73m-.287 14.425v-10.123c0-.19-.15-.348-.332-.348h-4.004c-.183 0-.347.198-.347.39v14.502c0 .427.254.554.584.554h3.606c.396 0 .493-.203.493-.561zm44.723-10.438h-3.985c-.183 0-.33.157-.33.35v10.752s-1.013.773-2.45.773-1.818-.68-1.818-2.14v-9.38c0-.19-.149-.35-.332-.35h-4.044c-.183 0-.332.16-.332.35v10.09c0 4.36 2.33 5.43 5.533 5.43 2.629 0 4.75-1.51 4.75-1.51s.1.801.149.891c.05.1.17.189.3.189l2.58-.01c.186 0 .336-.16.336-.35v-14.73c0-.194-.15-.35-.334-.35"/><path d="m77.678 19.967c-1.382-.044-2.32-.697-2.32-.697v-6.951s.926-.6 2.061-.7c1.436-.14 2.818.32 2.818 3.89 0 3.771-.625 4.511-2.559 4.45m1.572-12.349c-2.264 0-3.803 1.055-3.803 1.055v-7.425c0-.193-.148-.35-.33-.35h-4.027c-.186 0-.334.157-.334.35v21.93c0 .191.15.35.333.35h2.79c.12 0 .221-.067.29-.186s.17-1.012.17-1.012 1.64 1.63 4.761 1.63c3.659 0 5.76-1.938 5.76-8.697 0-6.76-3.351-7.643-5.621-7.643" mask="url(#b)" transform="translate(0 24)"/><path d="m35.176 32.07h-3.012l-.004-4.153c0-.157-.078-.236-.252-.236h-4.105c-.16 0-.245.08-.245.24v4.29s-2.057.52-2.196.56c-.138.05-.24.18-.24.34v2.69c0 .2.148.35.332.35h2.104v6.49c0 4.82 3.24 5.291 5.425 5.291.998 0 2.193-.33 2.39-.41.12-.041.19-.17.19-.311l.002-2.96c0-.2-.156-.351-.333-.351-.175 0-.625.07-1.087.07-1.48 0-1.98-.72-1.98-1.65v-6.159h3.01c.185 0 .334-.153.334-.35v-3.38c0-.192-.15-.35-.34-.35"/><path d="m0 0h84.859v72h-84.859z" fill="none"/></svg>