<svg enable-background="new 0 0 106 72" height="72" viewBox="0 0 106 72" width="106" xmlns="http://www.w3.org/2000/svg"><path d="m26.116 34.42h-12.356v3.643h8.763c-.433 5.11-4.71 7.291-8.747 7.291-5.165 0-9.673-4.041-9.673-9.703 0-5.51 4.297-9.76 9.684-9.76 4.157 0 6.606 2.635 6.606 2.635l2.567-2.64s-3.295-3.646-9.304-3.646c-7.652 0-13.57 6.42-13.57 13.354 0 6.794 5.567 13.421 13.765 13.421 7.21 0 12.49-4.91 12.49-12.171 0-1.533-.22-2.42-.22-2.42z" fill="#4285f4"/><path d="m36.236 31.78c-5.07 0-8.702 3.939-8.702 8.534 0 4.662 3.524 8.676 8.762 8.676 4.742 0 8.627-3.604 8.627-8.575 0-5.7-4.52-8.635-8.687-8.635zm.05 3.38c2.494 0 4.856 2.003 4.856 5.232 0 3.159-2.352 5.219-4.867 5.219-2.763 0-4.942-2.199-4.942-5.244 0-2.98 2.153-5.207 4.953-5.207z" fill="#ea4335"/><path d="m55.163 31.78c-5.07 0-8.702 3.939-8.702 8.534 0 4.662 3.53 8.676 8.768 8.676 4.742 0 8.627-3.604 8.627-8.575 0-5.7-4.52-8.635-8.686-8.635zm.05 3.38c2.494 0 4.855 2.003 4.855 5.232 0 3.159-2.357 5.219-4.869 5.219-2.766 0-4.94-2.199-4.94-5.244 0-2.98 2.15-5.207 4.95-5.207z" fill="#fbbc05"/><path d="m73.729 31.79c-4.653 0-8.311 4.05-8.311 8.597 0 5.18 4.24 8.615 8.23 8.615 2.467 0 3.779-.975 4.746-2.09v1.695c0 2.97-1.812 4.746-4.549 4.746-2.646 0-3.971-1.953-4.433-3.062l-3.327 1.389c1.18 2.479 3.557 5.067 7.786 5.067 4.627 0 8.153-2.896 8.153-8.97v-15.47h-3.631v1.46c-1.114-1.197-2.64-1.976-4.664-1.977zm.335 3.372c2.281 0 4.623 1.938 4.623 5.243 0 3.362-2.336 5.214-4.674 5.214-2.479 0-4.789-2.008-4.789-5.188 0-3.305 2.397-5.275 4.84-5.275z" fill="#4285f4"/><path d="m98.163 31.768c-4.39 0-8.075 3.472-8.075 8.593 0 5.421 4.107 8.636 8.496 8.636 3.663 0 5.91-1.992 7.252-3.777l-2.992-1.979c-.777 1.199-2.074 2.369-4.242 2.369-2.433 0-3.552-1.324-4.244-2.607l11.606-4.788-.603-1.403c-1.121-2.742-3.736-5.04-7.199-5.04zm.149 3.31c1.582 0 2.721.836 3.205 1.838l-7.752 3.22c-.334-2.493 2.043-5.058 4.549-5.058z" fill="#ea4335"/><path d="m84.555 48.486h3.812v-25.364h-3.812z" fill="#34a853"/><path d="m0 0h105.361v72h-105.361z" fill="none"/></svg>