<?xml version="1.0" encoding="UTF-8"?>
<svg width="110px" height="72px" viewBox="0 0 110 72" version="1.1" xmlns="http://www.w3.org/2000/svg" xmlns:xlink="http://www.w3.org/1999/xlink">
    <!-- Generator: Sketch 54.1 (76490) - https://sketchapp.com -->
    <title>color/logo-color-att</title>
    <desc>Created with Sketch.</desc>
    <g id="color/logo-color-att" stroke="none" stroke-width="1" fill="none" fill-rule="evenodd">
        <g>
            <path d="M73.245625,47.515625 C72.9534375,47.515625 72.7509375,47.313125 72.7509375,47.0203125 L72.7509375,32.50875 L67.8240625,32.50875 C67.5309375,32.50875 67.32875,32.30625 67.32875,32.0134375 L67.32875,30.011875 C67.32875,29.71875 67.5309375,29.5165625 67.8240625,29.5165625 L80.9409375,29.5165625 C81.2334375,29.5165625 81.4359375,29.71875 81.4359375,30.011875 L81.4359375,32.0134375 C81.4359375,32.30625 81.2334375,32.50875 80.9409375,32.50875 L76.01375,32.50875 L76.01375,47.0203125 C76.01375,47.313125 75.81125,47.515625 75.5184375,47.515625 L73.245625,47.515625 Z M86.991875,45.085625 C85.50625,45.085625 84.2465625,43.98375 84.2465625,42.43125 C84.2465625,40.855625 85.146875,40.0684375 86.5421875,39.280625 L90.1865625,43.19625 C89.3990625,44.3884375 88.4309375,45.085625 86.991875,45.085625 Z M88.004375,31.9009375 C89.174375,31.9009375 89.7590625,32.6659375 89.7590625,33.5890625 C89.7590625,34.5790625 89.0840625,35.14125 87.486875,36.0634375 C86.56375,35.07375 86.1596875,34.39875 86.1596875,33.6334375 C86.1596875,32.64375 86.834375,31.9009375 88.004375,31.9009375 Z M97.97125,46.8859375 L94.16875,42.7678125 L96.6890625,38.4484375 C96.91375,38.0665625 96.71125,37.8184375 96.350625,37.8184375 L94.16875,37.8184375 C93.80875,37.8184375 93.60625,37.9309375 93.4265625,38.223125 L92.00875,40.69875 L89.4884375,37.97625 C91.1990625,37.030625 92.8190625,35.770625 92.8190625,33.5215625 C92.8190625,30.889375 90.97375,29.1115625 87.9590625,29.1115625 C85.0115625,29.1115625 83.054375,31.0234375 83.054375,33.8140625 C83.054375,34.9159375 83.5271875,36.1759375 84.5615625,37.3684375 C82.446875,38.53875 81.0515625,39.933125 81.0515625,42.54375 C81.0515625,45.9409375 83.639375,47.920625 86.924375,47.920625 C89.5784375,47.920625 91.176875,46.7734375 92.32375,45.2434375 L94.0334375,47.1328125 C94.28125,47.425625 94.4840625,47.515625 94.8665625,47.515625 L97.7234375,47.515625 C98.0840625,47.515625 98.2640625,47.2009375 97.97125,46.8859375 Z M58.580625,40.27125 L61.1909375,32.8465625 L63.778125,40.27125 L58.580625,40.27125 Z M69.515625,46.9303125 L63.4184375,29.96625 C63.305625,29.65125 63.0809375,29.5165625 62.74375,29.5165625 L59.728125,29.5165625 C59.39125,29.5165625 59.18875,29.65125 59.0765625,29.96625 L52.9790625,46.9303125 C52.86625,47.223125 53.0690625,47.515625 53.36125,47.515625 L55.56625,47.515625 C55.90375,47.515625 56.1059375,47.3584375 56.2184375,47.0428125 L57.5465625,43.21875 L64.813125,43.21875 L66.1409375,47.0428125 C66.253125,47.3584375 66.4559375,47.515625 66.7934375,47.515625 L69.1334375,47.515625 C69.448125,47.515625 69.628125,47.223125 69.515625,46.9303125 Z M103.798438,47.515625 C104.090938,47.515625 104.293438,47.313125 104.293438,47.0203125 L104.293438,32.50875 L109.220938,32.50875 C109.513125,32.50875 109.715625,32.30625 109.715625,32.0134375 L109.715625,30.011875 C109.715625,29.71875 109.513125,29.5165625 109.220938,29.5165625 L96.1034375,29.5165625 C95.810625,29.5165625 95.60875,29.71875 95.60875,30.011875 L95.60875,32.0134375 C95.60875,32.30625 95.810625,32.50875 96.1034375,32.50875 L101.031563,32.50875 L101.031563,47.0203125 C101.031563,47.313125 101.234063,47.515625 101.52625,47.515625 L103.798438,47.515625 L103.798438,47.515625 Z" id="Fill-1" fill="#0A0B09"></path>
            <path d="M8.945,56.2709375 C12.76,59.2253125 17.5475,61 22.7421875,61 C28.42625,61 33.6090625,58.8890625 37.5653125,55.4221875 C37.6125,55.3809375 37.58875,55.3515625 37.5415625,55.3809375 C35.766875,56.5659375 30.708125,59.154375 22.7421875,59.154375 C15.82,59.154375 11.445,57.6096875 8.9746875,56.23 C8.9271875,56.2065625 8.9096875,56.241875 8.945,56.2709375 Z M24.269375,57.4209375 C29.8059375,57.4209375 35.890625,55.911875 39.52875,52.9221875 C40.5253125,52.10875 41.474375,51.02375 42.3234375,49.5671875 C42.8128125,48.73 43.290625,47.73375 43.6796875,46.7546875 C43.6971875,46.7078125 43.6678125,46.6840625 43.6325,46.7371875 C40.248125,51.7190625 30.44875,54.8265625 20.330625,54.8265625 C13.1784375,54.8265625 5.48375,52.5390625 2.4709375,48.1696875 C2.4415625,48.12875 2.411875,48.14625 2.4296875,48.1934375 C5.23625,54.1603125 13.7503125,57.4209375 24.269375,57.4209375 Z M18.2196875,47.52125 C6.704375,47.52125 1.2740625,42.155625 0.289375,38.4940625 C0.2775,38.4409375 0.2421875,38.4528125 0.2421875,38.5 C0.2421875,39.7321875 0.3659375,41.324375 0.578125,42.3796875 C0.6784375,42.8925 1.0971875,43.7003125 1.7103125,44.343125 C4.499375,47.25 11.4509375,51.324375 23.4909375,51.324375 C39.894375,51.324375 43.644375,45.8584375 44.4109375,44.0603125 C44.9590625,42.7746875 45.2421875,40.4515625 45.2421875,38.5 C45.2421875,38.028125 45.2303125,37.6509375 45.2125,37.279375 C45.2125,37.220625 45.1775,37.2146875 45.165625,37.27375 C44.3459375,41.6721875 30.330625,47.52125 18.2196875,47.52125 Z M2.411875,28.8478125 C1.7515625,30.156875 1.0203125,32.3678125 0.8021875,33.511875 C0.708125,34.00125 0.7490625,34.2371875 0.9203125,34.6025 C2.3,37.533125 9.2809375,42.220625 25.5665625,42.220625 C35.5015625,42.220625 43.2196875,39.779375 44.4696875,35.321875 C44.6996875,34.5021875 44.7115625,33.635625 44.4165625,32.468125 C44.0865625,31.165 43.4675,29.64375 42.9428125,28.5765625 C42.925,28.54125 42.8953125,28.5471875 42.9015625,28.5884375 C43.0959375,34.4315625 26.8046875,38.199375 18.5853125,38.199375 C9.681875,38.199375 2.2528125,34.65 2.2528125,30.16875 C2.2528125,29.738125 2.34125,29.3078125 2.453125,28.8596875 C2.465,28.8184375 2.4296875,28.8125 2.411875,28.8478125 Z M37.600625,21.6721875 C37.695,21.8196875 37.7421875,21.97875 37.7421875,22.1909375 C37.7421875,24.6909375 30.0946875,29.113125 17.9190625,29.113125 C8.9746875,29.113125 7.3,25.79375 7.3,23.6828125 C7.3,22.928125 7.58875,22.155625 8.225625,21.3715625 C8.2609375,21.324375 8.2315625,21.3065625 8.1903125,21.341875 C7.02875,22.3265625 5.9615625,23.435 5.0240625,24.6321875 C4.5759375,25.198125 4.29875,25.699375 4.29875,26 C4.29875,30.3753125 15.2659375,33.5471875 25.519375,33.5471875 C36.445,33.5471875 41.32125,29.98 41.32125,26.843125 C41.32125,25.7228125 40.885,25.0684375 39.770625,23.800625 C39.0453125,22.9753125 38.36125,22.303125 37.6359375,21.6428125 C37.600625,21.613125 37.5771875,21.636875 37.600625,21.6721875 Z M34.2515625,19.1721875 C30.8790625,17.1496875 26.9640625,16 22.7421875,16 C18.4909375,16 14.458125,17.1909375 11.0734375,19.2665625 C10.059375,19.8915625 9.4875,20.3928125 9.4875,21.0353125 C9.4875,22.9340625 13.9215625,24.9740625 21.786875,24.9740625 C29.57,24.9740625 35.6078125,22.739375 35.6078125,20.5871875 C35.6078125,20.074375 35.1596875,19.7146875 34.2515625,19.1721875 L34.2515625,19.1721875 Z" id="Fill-2" fill="#2493C5"></path>
        </g>
    </g>
</svg>