<svg width="96px" height="72px" viewBox="0 0 96 72" version="1.1" xmlns="http://www.w3.org/2000/svg" xmlns:xlink="http://www.w3.org/1999/xlink">
    <defs>
        <polygon id="path-1" points="0 0 55 0 55 33 0 33"></polygon>
    </defs>
    <g id="Symbols" stroke="none" stroke-width="1" fill="none" fill-rule="evenodd">
        <g id="logo-aws-arrow">
            <g id="aws" transform="translate(21.000000, 22.000000)">
                <mask id="mask-2" fill="white">
                    <use xlink:href="#path-1"></use>
                </mask>
                <g id="Clip-2"></g>
                <path d="M46.6151752,17 C45.6621891,17 44.7300781,16.894174 43.819568,16.6834264 C42.9088764,16.4726789 42.21002,16.2297313 41.7229987,15.9553073 C41.4263932,15.7867092 41.2410601,15.6181112 41.167181,15.4487896 C41.0927573,15.2800106 41.05609,15.1115935 41.05609,14.9422719 L41.05609,14.0242086 C41.05609,13.6443203 41.1935015,13.4543762 41.4690506,13.4543762 C41.574696,13.4543762 41.6857869,13.4757223 41.802505,13.5176909 C41.9186785,13.5603831 42.0724269,13.6235169 42.2632057,13.707635 C42.8771102,13.98224 43.5442004,14.1935302 44.2642948,14.3407821 C44.9840261,14.4885767 45.7043021,14.5625645 46.424578,14.5625645 C47.5681612,14.5625645 48.4521692,14.3621282 49.076965,13.9608939 C49.7013977,13.5603831 50.0139771,12.9903698 50.0139771,12.2513966 C50.0139771,11.744879 49.849882,11.3228412 49.5216918,10.9851024 C49.1931385,10.6477255 48.5844981,10.3311519 47.695226,10.0353818 L45.0584498,9.2122905 C43.7244509,8.79025273 42.755491,8.17863262 42.1519332,7.37616387 C41.5483754,6.57441873 41.2465057,5.69832402 41.2465057,4.74860335 C41.2465057,3.98882682 41.4104193,3.31913807 41.7389726,2.73845172 C42.0671628,2.15812716 42.5013614,1.66192072 43.0413868,1.250556 C43.5814122,0.839010375 44.2112906,0.527863794 44.931385,0.316573557 C45.6511164,0.106006917 46.4135052,0 47.218733,0 C47.6208023,0 48.0286803,0.0267730779 48.441641,0.0790529396 C48.8546016,0.132056398 49.2463242,0.200798085 49.6169904,0.284916201 C49.9872935,0.369577015 50.3316391,0.464549082 50.6493011,0.569832402 C50.9669632,0.67565842 51.2212743,0.781122639 51.41169,0.886405959 C51.6660011,1.03438148 51.8455255,1.18217611 51.9518969,1.32960894 C52.0575422,1.47758446 52.1107279,1.67783985 52.1107279,1.9310987 L52.1107279,2.7858473 C52.1107279,3.16573557 51.9725903,3.3556797 51.6977673,3.3556797 C51.549283,3.3556797 51.3165729,3.28205374 50.9989109,3.13407821 C49.960973,2.67007183 48.7959702,2.43761639 47.5046288,2.43761639 C46.4666909,2.43761639 45.6621891,2.60675712 45.090216,2.94413408 C44.5186059,3.28205374 44.2327101,3.82022878 44.2327101,4.55865922 C44.2327101,5.06517691 44.412416,5.49264166 44.772554,5.84087257 C45.1325104,6.18892259 45.7996007,6.52141527 46.7740062,6.83798883 L49.3468869,7.66108007 C50.6598294,8.08347965 51.5970231,8.6638042 52.1582864,9.40223464 C52.7191868,10.1412078 53,10.9851024 53,11.9348231 C53,12.7157648 52.841169,13.4176536 52.523507,14.0401277 C52.205845,14.6627827 51.7662008,15.1955307 51.2053004,15.6387337 C50.644037,16.0819367 49.9715012,16.4198563 49.1880559,16.6517691 C48.4044291,16.8836818 47.5467417,17 46.6151752,17 Z M23.2986023,16.5251397 C22.9809403,16.5251397 22.7476856,16.4672519 22.5999274,16.3509338 C22.4514431,16.2353392 22.3243783,15.9978186 22.2185515,15.6387337 L17.9620621,1.6461825 C17.8556907,1.28764033 17.8032311,1.04469274 17.8032311,0.918063315 C17.8032311,0.622835861 17.9509893,0.474860335 18.2477764,0.474860335 L20.0268651,0.474860335 C20.3652205,0.474860335 20.6035578,0.533290769 20.7415139,0.648885342 C20.8789254,0.765203512 21.0005446,1.00272413 21.1067344,1.36126629 L24.1564712,13.3277467 L26.9834816,1.36126629 C27.0678889,1.00272413 27.184607,0.765203512 27.3330913,0.648885342 C27.4808495,0.533290769 27.7246324,0.474860335 28.0635324,0.474860335 L29.5247776,0.474860335 C29.8633146,0.474860335 30.1070975,0.533290769 30.2555818,0.648885342 C30.40334,0.765203512 30.5200581,1.00272413 30.6048285,1.36126629 L33.4637865,13.4860335 L36.6088219,1.36126629 C36.7144672,1.00272413 36.8360864,0.765203512 36.9740425,0.648885342 C37.111454,0.533290769 37.3497913,0.474860335 37.6888728,0.474860335 L39.3722999,0.474860335 C39.6687239,0.474860335 39.8170267,0.622835861 39.8170267,0.918063315 C39.8170267,1.00272413 39.8063169,1.0976962 39.785442,1.20297952 C39.7640225,1.30880553 39.7219096,1.45623836 39.6581957,1.6461825 L35.2746415,15.6387337 C35.1682701,15.9978186 35.0413868,16.2353392 34.8932656,16.3509338 C34.7449628,16.4672519 34.5122527,16.5251397 34.1945907,16.5251397 L32.6380468,16.5251397 C32.2989653,16.5251397 32.0553639,16.4620059 31.9072427,16.3351955 C31.7589399,16.2085661 31.6422218,15.9661612 31.5578145,15.6070764 L28.7306226,3.95716946 L25.9353785,15.6070764 C25.8504266,15.9661612 25.7337085,16.2085661 25.5859503,16.3351955 C25.437466,16.4620059 25.1938646,16.5251397 24.8553276,16.5251397 L23.2986023,16.5251397 Z M8.71791614,14.5625645 C9.3107642,14.5625645 9.93555999,14.4514924 10.592122,14.2300718 C11.2485025,14.0084703 11.8201125,13.6235169 12.3076783,13.0744879 C12.6039209,12.7372918 12.8103104,12.3517957 12.9270285,11.918904 C13.043202,11.4867358 13.1018334,10.964299 13.1018334,10.3519553 L13.1018334,9.59217877 C12.5721547,9.46554935 12.0161554,9.365693 11.4340171,9.29152434 C10.8513342,9.21789838 10.2849882,9.18063315 9.73461608,9.18063315 C8.52731893,9.18063315 7.62697404,9.42339984 7.03448902,9.90875233 C6.44127791,10.3944666 6.14485388,11.0909284 6.14485388,11.9981378 C6.14485388,12.8425752 6.3673988,13.4811492 6.81194409,13.9134983 C7.2566709,14.3462091 7.89199492,14.5625645 8.71791614,14.5625645 Z M16.0878562,11.8081937 C16.0878562,12.4838521 16.1562897,13.0220271 16.2942458,13.4227188 C16.4316573,13.8239532 16.6277001,14.256664 16.8820113,14.7206704 C16.9664186,14.8686459 17.0090761,15.0055866 17.0090761,15.132216 C17.0090761,15.3221601 16.892358,15.501793 16.6594663,15.6703911 L15.5158831,16.4301676 C15.3463423,16.5356318 15.1875113,16.5884544 15.0393901,16.5884544 C14.8489744,16.5884544 14.6687239,16.5043363 14.4995462,16.3351955 C14.2452351,16.0819367 14.0279543,15.8024475 13.8482483,15.4963661 C13.6681793,15.1906464 13.4828463,14.8369886 13.292249,14.4357542 C11.8732982,16.1032828 10.094391,16.9368662 7.95570884,16.9368662 C6.4309312,16.9368662 5.22363405,16.5043363 4.33436195,15.6387337 C3.44472681,14.7736738 3,13.6128438 3,12.1564246 C3,10.6160681 3.55055364,9.37618516 4.65202396,8.43659484 C5.7527682,7.49790902 7.23543293,7.02793296 9.09929207,7.02793296 C9.71319659,7.02793296 10.3539662,7.07550944 11.0210565,7.17030061 C11.6881467,7.26545358 12.3815575,7.39750998 13.1018334,7.56610801 L13.1018334,6.23649907 C13.1018334,4.86492152 12.815756,3.89928172 12.2441459,3.33976057 C11.6723543,2.78096302 10.6876021,2.5009311 9.28988927,2.5009311 C8.65456526,2.5009311 8.00326738,2.58016494 7.33617716,2.73845172 C6.66908695,2.89673849 6.01778907,3.10242086 5.38246506,3.3556797 C5.08567798,3.48230912 4.87420584,3.56136206 4.74714104,3.59320032 C4.62025776,3.62485767 4.52495916,3.6405959 4.46142676,3.6405959 C4.20729715,3.6405959 4.08005083,3.45065177 4.08005083,3.0707635 L4.08005083,2.18435754 C4.08005083,1.88913009 4.12234525,1.67783985 4.20729715,1.55121043 C4.29152296,1.42458101 4.46142676,1.29795158 4.71537484,1.17132216 C5.35069886,0.854748603 6.1132692,0.580867252 7.00272282,0.348230912 C7.89199492,0.11631817 8.83427119,0 9.82973316,0 C11.9900163,0 13.5726992,0.490598563 14.5788709,1.47215749 C15.5844981,2.45335462 16.0878562,3.93636605 16.0878562,5.91992551 L16.0878562,11.8081937 Z" id="Fill-1" fill="#1E222F" mask="url(#mask-2)"></path>
                <path d="M49.5580544,25.7736133 C43.5552525,30.4914043 34.8531403,33 27.3593916,33 C16.8571316,33 7.39951893,28.865477 0.242682552,21.9833427 C-0.319202758,21.4427908 0.181972685,20.7047743 0.857438315,21.1231972 C8.57907699,25.908363 18.1278456,28.7903356 27.9900085,28.7903356 C34.6429347,28.7903356 41.9560124,27.3199335 48.6855096,24.2799116 C49.7000754,23.8214909 50.5509251,24.9921042 49.5580544,25.7736133" id="Fill-3" fill="#EB8E36" mask="url(#mask-2)"></path>
                <path d="M51.3038335,23.6772716 C50.5565696,22.7065663 46.366535,23.2173122 44.4837421,23.4463914 C43.9133171,23.5157275 43.8249863,23.0096641 44.3388301,22.6433534 C47.6820955,20.2594525 53.1593112,20.9475907 53.796073,21.7459463 C54.4372691,22.5509653 53.6273932,28.1270279 50.4950218,30.787913 C50.0129275,31.1969059 49.5546009,30.9786323 49.7683329,30.438351 C50.4733826,28.6507405 52.0514521,24.6490575 51.3038335,23.6772716" id="Fill-4" fill="#EB8E36" mask="url(#mask-2)"></path>
            </g>
        </g>
    </g>
</svg>
